<svg width="18" height="18" viewBox="0 0 18 18" fill="none" xmlns="http://www.w3.org/2000/svg">
<g id="Frame">
<path id="Vector" d="M3.45932 0.743413C3.40441 0.74204 3.34957 0.748203 3.29633 0.761729C2.57598 0.946721 2.13045 1.487 2.02663 2.12048C1.92285 2.75396 2.10285 3.46858 2.47227 4.16633C3.19983 5.54045 4.69632 6.87617 6.6155 7.18449C6.41828 6.94824 6.22703 6.68366 6.04337 6.39787C4.672 5.95596 3.5817 4.90922 3.03154 3.87017C2.70789 3.25891 2.57992 2.6576 2.65114 2.22286C2.72241 1.78812 2.93493 1.50785 3.45369 1.37461C3.45598 1.37401 3.45608 1.37341 3.45693 1.37274C3.45464 1.36772 3.46062 1.36993 3.45693 1.37274C3.4577 1.37447 3.45907 1.37661 3.46311 1.38037C3.48164 1.39771 3.52249 1.45912 3.5407 1.56108C3.57712 1.76512 3.52618 2.10927 3.25471 2.46389L3.7572 2.84857C4.12345 2.37009 4.23708 1.86117 4.1636 1.44988C4.1269 1.24421 4.04421 1.05736 3.89543 0.918174C3.78384 0.813796 3.62307 0.747069 3.45932 0.743413ZM14.5407 0.743413C14.3769 0.747069 14.2162 0.813831 14.1046 0.91821C13.9558 1.05743 13.8731 1.24425 13.8364 1.44991C13.7629 1.86121 13.8766 2.37009 14.2428 2.8486L14.7453 2.46392C14.4738 2.1093 14.4229 1.76516 14.4593 1.56111C14.4775 1.45916 14.5184 1.39774 14.5369 1.38041C14.5395 1.37831 14.5416 1.37572 14.5431 1.37278C14.5394 1.36997 14.5454 1.36775 14.5431 1.37278C14.5439 1.37345 14.544 1.37405 14.5463 1.37464C15.0651 1.50789 15.2776 1.78808 15.3489 2.22286C15.4201 2.6576 15.2921 3.25891 14.9685 3.87017C14.4183 4.90922 13.328 5.95599 11.9567 6.39787C11.773 6.68366 11.5817 6.94824 11.3845 7.18449C13.3037 6.87617 14.8002 5.54045 15.5278 4.16633C15.8972 3.46858 16.0772 2.75396 15.9734 2.12048C15.8696 1.48697 15.424 0.946721 14.7037 0.761729C14.6505 0.748203 14.5956 0.74204 14.5407 0.743413ZM4.83175 1.01457C4.90719 2.29894 5.42096 3.935 6.11625 5.26229C6.49267 5.98096 6.92048 6.60997 7.33832 7.04419C7.75618 7.47844 8.15626 7.69422 8.43751 7.69422H9.56251C9.84376 7.69422 10.2438 7.47844 10.6617 7.04419C11.0795 6.60997 11.5074 5.98096 11.8838 5.26229C12.5791 3.93497 13.0928 2.29897 13.1683 1.01457H4.83175ZM8.19142 8.32707V8.88957H9.80861V8.32707H8.19142ZM8.418 9.52239C8.33159 10.4353 7.96814 11.557 7.55889 12.1943H10.4411C10.0319 11.557 9.66844 10.4353 9.58202 9.52239H8.418ZM7.06642 12.8271V13.3193H10.9336V12.8271H7.06642ZM5.94142 13.9521V17.2568H12.0586V13.9521H5.94142ZM6.75001 14.7607H11.25V16.4482H6.75001V14.7607Z" fill="#FFE81A"/>
</g>
</svg>
