<svg width="24" height="24" viewBox="0 0 24 24" fill="none" xmlns="http://www.w3.org/2000/svg">
<g id="Frame">
<path id="Vector" d="M2.05998 14.6801C2.12889 14.9326 2.29404 15.148 2.51998 15.2801L4.42998 16.3901V18.5901C4.42998 18.8554 4.53534 19.1097 4.72287 19.2972C4.91041 19.4848 5.16476 19.5901 5.42998 19.5901H7.62998L8.73998 21.5001C8.82723 21.6513 8.95252 21.7769 9.10339 21.8647C9.25427 21.9524 9.42547 21.9991 9.59998 22.0001C9.77946 22.0001 9.95562 21.9517 10.11 21.8601L12.01 20.7601L13.92 21.8601C14.0335 21.9267 14.1591 21.9701 14.2894 21.9881C14.4198 22.006 14.5524 21.998 14.6797 21.9645C14.807 21.9311 14.9264 21.8728 15.0311 21.7932C15.1358 21.7135 15.2238 21.6139 15.29 21.5001L16.39 19.5901H18.59C18.8552 19.5901 19.1096 19.4848 19.2971 19.2972C19.4846 19.1097 19.59 18.8554 19.59 18.5901V16.3901L21.5 15.2801C21.7287 15.1482 21.896 14.9312 21.9653 14.6764C22.0346 14.4216 22.0004 14.1498 21.87 13.9201L20.76 12.0001L21.87 10.0901C22.0004 9.86052 22.0346 9.58866 21.9653 9.33387C21.896 9.07909 21.7287 8.86206 21.5 8.73014L19.59 7.63014V5.43014C19.59 5.16492 19.4846 4.91057 19.2971 4.72303C19.1096 4.53549 18.8552 4.43014 18.59 4.43014H16.39L15.29 2.52014C15.1555 2.29211 14.9362 2.12669 14.68 2.06014C14.5529 2.026 14.4204 2.01727 14.29 2.03442C14.1596 2.05158 14.0339 2.0943 13.92 2.16014L12 3.26014L10.1 2.16014C9.87157 2.02893 9.60061 1.99314 9.34597 2.06054C9.09132 2.12795 8.87356 2.29311 8.73998 2.52014L7.62998 4.43014H5.42998C5.16476 4.43014 4.91041 4.53549 4.72287 4.72303C4.53534 4.91057 4.42998 5.16492 4.42998 5.43014V7.63014L2.52998 8.73014C2.41539 8.79547 2.31486 8.88282 2.23418 8.98717C2.15349 9.09152 2.09425 9.21079 2.05986 9.33813C2.02547 9.46547 2.01661 9.59836 2.03379 9.72914C2.05097 9.85992 2.09386 9.986 2.15998 10.1001L3.25998 12.0001L2.15998 13.9101C2.09281 14.0253 2.04937 14.1528 2.03219 14.285C2.01502 14.4173 2.02447 14.5516 2.05998 14.6801ZM5.27998 11.5101L4.38998 10.0001L5.93998 9.10014C6.08926 9.01163 6.21293 8.8858 6.29884 8.73501C6.38476 8.58423 6.42995 8.41368 6.42998 8.24014V6.43014H8.20998C8.38619 6.43084 8.55945 6.38496 8.71223 6.29716C8.86501 6.20936 8.99187 6.08274 9.07998 5.93014L9.99998 4.39014L11.54 5.28014C11.692 5.36791 11.8644 5.41411 12.04 5.41411C12.2155 5.41411 12.388 5.36791 12.54 5.28014L14.09 4.39014L15 5.93014C15.0881 6.08274 15.2149 6.20936 15.3677 6.29716C15.5205 6.38496 15.6938 6.43084 15.87 6.43014H17.64V8.21014C17.641 8.38465 17.6877 8.55585 17.7755 8.70672C17.8632 8.85759 17.9888 8.98288 18.14 9.07014L19.68 9.97014L18.79 11.5101C18.7022 11.6622 18.656 11.8346 18.656 12.0101C18.656 12.1857 18.7022 12.3581 18.79 12.5101L19.68 14.0501L18.14 14.9501C17.9888 15.0374 17.8632 15.1627 17.7755 15.3136C17.6877 15.4644 17.641 15.6356 17.64 15.8101V17.5901H15.81C15.6355 17.5912 15.4643 17.6379 15.3134 17.7256C15.1625 17.8133 15.0372 17.939 14.95 18.0901L14.06 19.6301L12.51 18.7401C12.358 18.6524 12.1855 18.6062 12.01 18.6062C11.8344 18.6062 11.662 18.6524 11.51 18.7401L9.99998 19.6301L9.10998 18.0901C9.02187 17.9375 8.89501 17.8109 8.74223 17.7231C8.58946 17.6353 8.41619 17.5894 8.23998 17.5901H6.42998V15.8101C6.42156 15.6452 6.37241 15.4848 6.2869 15.3435C6.20139 15.2021 6.0822 15.0842 5.93998 15.0001L4.38998 14.1001L5.27998 12.5601C5.37732 12.4023 5.42888 12.2206 5.42888 12.0351C5.42888 11.8497 5.37732 11.6679 5.27998 11.5101Z" fill="#38BDF8"/>
</g>
</svg>
